# AST/ASF file generated using VICON BodyLanguage
# -----------------------------------------------
:version 1.10
:name VICON
:units
  mass 1.0
  length 0.45
  angle deg
:documentation
   .ast/.asf automatically generated from VICON data using
   VICON BodyBuilder and BodyLanguage model FoxedUp or BRILLIANT.MOD
:root
   order TX TY TZ RX RY RZ
   axis XYZ
   position 0 0 0  
   orientation 0 0 0 
:bonedata
  begin
     id 1 
     name lhipjoint
     direction 0.671379 -0.66392 0.329334 
     length 2.38647 
     axis 0 0 0  XYZ
  end
  begin
     id 2 
     name lfemur
     direction 0.34202 -0.939693 0  
     length 6.48179  
     axis 0 0 20  XYZ
    dof rx ry rz
    limits (-160.0 20.0)
           (-70.0 70.0)
           (-60.0 70.0)
  end
  begin
     id 3 
     name ltibia
     direction 0.34202 -0.939693 0   
     length 6.86524   
     axis 0 0 20   XYZ
    dof rx
    limits (-10.0 170.0)
  end
  begin
     id 4 
     name lfoot
     direction 0.204886 -0.562919 0.800715   
     length 1.73031   
     axis -90 7.62852e-016 20   XYZ
    dof rx rz
    limits (-45.0 90.0)
           (-70.0 20.0)
  end
  begin
     id 5 
     name ltoes
     direction 1.53548e-011 -4.21841e-011 1   
     length 0.828161   
     axis -90 7.62852e-016 20   XYZ
    dof rx
    limits (-90.0 20.0)
  end
  begin
     id 6 
     name rhipjoint
     direction -0.662732 -0.670855 0.332775   
     length 2.3618  
     axis 0 0 0  XYZ 
  end
  begin
     id 7 
     name rfemur
     direction -0.34202 -0.939693 0   
     length 6.3025   
     axis 0 0 -20   XYZ
    dof rx ry rz
    limits (-160.0 20.0)
           (-70.0 70.0)
           (-70.0 60.0)
  end
  begin
     id 8 
     name rtibia
     direction -0.34202 -0.939693 0   
     length 6.8732   
     axis 0 0 -20   XYZ
    dof rx
    limits (-10.0 170.0)
 end
 begin
     id 9 
     name rfoot
     direction -0.173856 -0.477665 0.861168   
     length 1.54784  
     axis -90 -7.62852e-016 -20   XYZ
    dof rx rz
    limits (-45.0 90.0)
           (-20.0 70.0)
  end
  begin
     id 10 
     name rtoes
     direction -1.53562e-011 -4.21802e-011 1   
     length 0.759618   
     axis -90 -7.62852e-016 -20   XYZ
    dof rx
    limits (-90.0 20.0)
  end
  begin
     id 11 
     name lowerback
     direction -0.0278357 0.999497 -0.0151789   
     length 1.97203   
     axis 0 0 0   XYZ
    dof rx ry rz
    limits (-20.0 45.0)
           (-30.0 30.0)
           (-30.0 30.0)
  end
  begin
     id 12 
     name upperback
     direction -0.00360622 0.997542 0.0699804   
     length 1.94709   
     axis 0 0 0   XYZ
    dof rx ry rz
    limits (-20.0 45.0)
           (-30.0 30.0)
           (-30.0 30.0)
  end
  begin
     id 13 
     name thorax
     direction 0.00907706 0.997048 0.0762461   
     length 1.95722   
     axis 0 0 0   XYZ
    dof rx ry rz
    limits (-20.0 45.0)
           (-30.0 30.0)
           (-30.0 30.0)
  end
  begin
     id 14 
     name lowerneck
     direction -0.0481835 0.99872 -0.0153927   
     length 1.63078   
     axis 0 0 0   XYZ
    dof rx ry rz
    limits (-20.0 45.0)
           (-30.0 30.0)
           (-30.0 30.0)
  end
  begin
     id 15 
     name upperneck
     direction 0.0859716 0.979226 -0.183644   
     length 1.62591   
     axis 0 0 0   XYZ
    dof rx ry rz
    limits (-20.0 45.0)
           (-30.0 30.0)
           (-30.0 30.0)
  end
  begin
     id 16
     name head
     direction 0.0324821 0.997629 -0.0606773  
     length 1.64811  
     axis 0 0 0   XYZ
    dof rx ry rz
    limits (-20.0 45.0)
           (-30.0 30.0)
           (-30.0 30.0)
  end
  begin
     id 17 
     name lclavicle
     direction 0.939609 0.311019 0.142835  
     length 3.70647  
     axis 0 0 0   XYZ
    dof ry rz
    limits (-20.0 10.0)
           (0.0 20.0)
  end
  begin
     id 18 
     name lhumerus
     direction 1 -4.48963e-011 -1.59838e-027   
     length 4.59207   
     axis 180 -30 -90   XYZ
    dof rx ry rz
    limits (-60.0 90.0)
           (-90.0 90.0)
           (-90.0 90.0)
  end
  begin
     id 19
     name lradius
     direction 1 -4.48957e-011 -1.3483e-026   
     length 2.98109   
     axis 180 -30 -90   XYZ
    dof rx
    limits (-10.0 170.0)
  end
  begin
     id 20
     name lwrist
     direction 1 -4.48954e-011 -3.11579e-026   
     length 1.49055   
     axis 2.00652e-014 90 90   XYZ
    dof ry
    limits (-180.0 0.0)
 end
  begin
     id 21 
     name lhand
     direction 1 -4.4911e-011 -6.23158e-026   
     length 0.480203   
     axis 3.97628e-014 90 90   XYZ
    dof rx rz
    limits (-90.0 90.0)
           (-45.0 45.0)
  end
  begin
     id 22 
     name lfingers
     direction 1 -4.48893e-011 -1.24632e-025   
     length 0.387152   
     axis 7.95256e-014 90 90   XYZ
    dof rx
    limits (0.0 90.0)
  end
  begin
     id 23
     name lthumb
     direction 0.707107 -6.35013e-011 0.707107   
     length 0.555875   
     axis -90 45 2.85299e-015   XYZ
    dof rx rz
    limits (-45.0 45.0)
           (-45.0 45.0)
  end
  begin
     id 24 
     name rclavicle
     direction -0.950396 0.30392 0.0661859   
     length 3.70894  
     axis 0 0 0   XYZ 
    dof ry rz
    limits (-10.0 20.0)
           (-20.0 0.0)
  end
  begin
     id 25 
     name rhumerus
     direction -1 -4.48957e-011 -2.96677e-027  
     length 4.76508   
     axis 180 30 90   XYZ
    dof rx ry rz
    limits (-90.0 60.0)
           (-90.0 90.0)
           (-90.0 90.0)
  end
  begin
     id 26 
     name rradius
     direction -1 -4.48974e-011 -1.44501e-026   
     length 2.78902   
     axis 180 30 90   XYZ
    dof rx
    limits (-10.0 170.0)
  end
  begin
     id 27 
     name rwrist
     direction -1 -4.48978e-011 -3.11579e-026   
     length 1.39451   
     axis 2.00652e-014 -90 -90   XYZ
    dof ry
    limits (-180.0 0.0)
  end
  begin
     id 28
     name rhand
     direction -1 -4.48956e-011 -6.23158e-026   
     length 0.721303   
     axis 3.97628e-014 -90 -90   XYZ
    dof rx rz
    limits (-90.0 90.0)
           (-45.0 45.0)
  end
  begin
     id 29
     name rfingers
     direction -1 -4.4899e-011 -1.24632e-025   
     length 0.581533   
     axis 7.95256e-014 -90 -90   XYZ
    dof rx
    limits (0.0 90.0)
  end
  begin
     id 30
     name rthumb
     direction -0.707107 -6.34911e-011 0.707107   
     length 0.834968   
     axis -90 -45 -2.85299e-015   XYZ
    dof rx rz
    limits (-45.0 45.0)
           (-45.0 45.0)
  end
:hierarchy
  begin
    root lhipjoint rhipjoint lowerback
    lhipjoint lfemur
    lfemur ltibia
    ltibia lfoot
    lfoot ltoes
    rhipjoint rfemur
    rfemur rtibia
    rtibia rfoot
    rfoot rtoes
    lowerback upperback
    upperback thorax
    thorax lowerneck lclavicle rclavicle
    lowerneck upperneck
    upperneck head
    lclavicle lhumerus
    lhumerus lradius
    lradius lwrist
    lwrist lhand lthumb
    lhand lfingers
    rclavicle rhumerus
    rhumerus rradius
    rradius rwrist
    rwrist rhand rthumb
    rhand rfingers
  end

#!OML:ASF I:\salsa\salsa 7_09\Patient 1\Session 1\dancerfemale.ASF
:FULLY-SPECIFIED
:DEGREES
1136
root 3.68913 16.1529 2.93958 -172.849 43.0978 539.74
lowerback -0.591732 1.49345 -8.27918
upperback -7.06034 2.1903 2.00082
thorax -7.5291 1.83405 6.62338
lowerneck 2.004 4.59489 -2.27136
upperneck 28.1108 5.17335 24.2945
head 7.34616 5.77418 9.25709
rclavicle 4.17696e-014 3.77691e-015
rhumerus 53.3887 -30.4671 -21.5992
rradius 96.7869
rwrist -26.6545
rhand -6.99798 39.2107
rfingers 7.12502
rthumb 18.8728 10.1062
lclavicle 4.17696e-014 3.77691e-015
lhumerus -55.4413 -19.6002 100.341
lradius 113.091
lwrist -7.15744
lhand -29.055 35.8081
lfingers 7.12502
lthumb -2.40483 65.7743
rfemur -25.6224 10.1063 23.2971
rtibia 45.5882
rfoot -1.34718 23.0625
rtoes -6.63636
lfemur -26.1316 -16.825 -2.10568
ltibia 39.5694
lfoot -11.2947 -5.28942
ltoes -19.7422
1137
root 3.59081 16.1928 2.86093 -174.089 48.5093 536.548
lowerback -1.01452 1.67707 -9.75491
upperback -7.55408 2.40672 1.26601
thorax -7.92683 2.06044 6.65137
lowerneck 1.86763 5.36169 -1.93097
upperneck 28.4076 6.05818 24.054
head 7.3664 6.15883 9.12978
rclavicle -1.16289e-014 6.95746e-015
rhumerus 54.2675 -31.4726 -22.8026
rradius 99.0856
rwrist -27.5016
rhand -8.13778 38.6843
rfingers 7.12502
rthumb 17.7763 9.47679
lclavicle -1.16289e-014 6.95746e-015
lhumerus -55.2991 -20.145 100.743
lradius 113.268
lwrist -7.23097
lhand -29.1526 37.204
lfingers 7.12502
lthumb -2.49904 67.1692
rfemur -28.2176 8.92555 20.5322
rtibia 47.5576
rfoot -1.77739 21.9368
rtoes -10.9369
lfemur -24.3744 -13.4025 -5.79311
ltibia 38.0464
lfoot -12.6521 -3.15883
ltoes -22.4048
1138
root 3.48949 16.2139 2.78714 -175.977 53.8137 533.114
lowerback -1.21358 1.75418 -11.0082
upperback -7.96333 2.47256 0.718387
thorax -8.3416 2.2063 6.75327
lowerneck 1.44064 6.14851 -1.88746
upperneck 28.8183 6.9235 23.8552
head 7.46734 6.51656 9.10172
rclavicle 9.26834e-014 1.21259e-014
rhumerus 55.5482 -32.6711 -24.4706
rradius 101.478
rwrist -28.6193
rhand -9.49327 38.3575
rfingers 7.12502
rthumb 16.4716 9.03668
lclavicle 9.26834e-014 1.21259e-014
lhumerus -54.9256 -20.2522 101.043
lradius 113.306
lwrist -7.6051
lhand -27.886 36.9045
lfingers 7.12502
lthumb -1.27577 66.8804
rfemur -30.913 6.7547 18.4326
rtibia 49.633
rfoot -2.54425 20.4963
rtoes -19.8536
lfemur -22.7042 -10.0409 -9.08476
ltibia 36.3865
lfoot -13.4076 -0.757533
ltoes -22.7823
1139
root 3.38929 16.2232 2.72023 -178.626 58.8467 529.269
lowerback -1.13554 1.77388 -11.9744
upperback -8.3936 2.42932 0.200629
thorax -8.90931 2.29254 6.71619
lowerneck 1.26843 6.85212 -1.68628
upperneck 28.921 7.73054 23.4152
head 7.45426 6.80486 8.91051
rclavicle 5.51876e-014 -1.61016e-014
rhumerus 56.8583 -34.1399 -26.3987
rradius 103.639
rwrist -30.1655
rhand -10.6692 38.5562
rfingers 7.12502
rthumb 15.3392 9.14516
lclavicle 5.51876e-014 -1.61016e-014
lhumerus -54.9246 -20.61 101.791
lradius 113.504
lwrist -6.99375
lhand -28.3339 36.2248
lfingers 7.12502
lthumb -1.70835 66.1977
rfemur -33.5848 3.79788 17.0244
rtibia 51.7514
rfoot -3.65141 18.8378
rtoes -29.3208
lfemur -21.1756 -6.6716 -12.0089
ltibia 34.8555
lfoot -13.664 1.62259
ltoes -21.0444
1140
root 3.29093 16.212 2.65607 -182.606 63.5527 524.456
lowerback -0.749291 1.89307 -12.7026
upperback -8.84533 2.46015 -0.506285
thorax -9.67948 2.403 6.31098
lowerneck 1.50965 7.29612 -1.08414
upperneck 28.5699 8.26564 22.7812
head 7.29867 6.954 8.51492
rclavicle -4.44532e-014 -1.64991e-014
rhumerus 57.559 -36.0946 -28.2474
rradius 105.739
rwrist -31.996
rhand -11.7334 38.6915
rfingers 7.12502
rthumb 14.3139 9.20493
lclavicle -4.44532e-014 -1.64991e-014
lhumerus -55.1326 -21.275 102.37
lradius 113.806
lwrist -6.9098
lhand -28.0254 35.6494
lfingers 7.12502
lthumb -1.41043 65.6245
rfemur -36.0288 0.430704 16.0532
rtibia 53.797
rfoot -5.0582 17.2726
rtoes -35.08
lfemur -19.7598 -3.19472 -14.7587
ltibia 33.6233
lfoot -13.9174 3.32072
ltoes -19.7122
1141
root 3.19932 16.1779 2.58882 -188.322 67.9274 518.263
lowerback -0.297988 1.93869 -13.1958
upperback -9.05239 2.37353 -1.14074
thorax -10.1761 2.40461 5.86764
lowerneck 1.34182 7.69928 -0.727232
upperneck 28.2009 8.70786 22.1528
head 7.21352 7.03996 8.19633
rclavicle -6.14369e-014 -9.54166e-015
rhumerus 58.5416 -38.3197 -30.7709
rradius 108.055
rwrist -33.5865
rhand -12.7292 38.8533
rfingers 7.12502
rthumb 13.3542 9.30126
lclavicle -6.14369e-014 -9.54166e-015
lhumerus -54.9141 -21.7742 102.784
lradius 114.044
lwrist -6.74963
lhand -28.2439 35.7868
lfingers 7.12502
lthumb -1.62149 65.7604
rfemur -38.2195 -3.10959 15.4828
rtibia 55.6477
rfoot -6.59315 16.2018
rtoes -38.1916
lfemur -18.3406 0.246887 -17.2365
ltibia 32.6125
lfoot -14.4148 4.18998
ltoes -18.6638
1142
root 3.12274 16.1409 2.51624 -196.149 71.9038 510.181
lowerback 0.0597391 1.89124 -13.3222
upperback -9.14579 2.18981 -1.68016
thorax -10.4429 2.31097 5.34582
lowerneck 1.07165 8.08787 -0.67567
upperneck 27.8056 9.13157 21.5874
head 7.1174 7.0957 7.9591
rclavicle -6.48535e-014 5.06901e-014
rhumerus 59.6447 -40.536 -33.654
rradius 110.155
rwrist -34.974
rhand -13.7951 39.9316
rfingers 7.12502
rthumb 12.3267 10.315
lclavicle -6.48535e-014 5.06901e-014
lhumerus -54.7408 -22.3916 103.321
lradius 114.247
lwrist -6.36133
lhand -28.7629 35.6389
lfingers 7.12502
lthumb -2.12271 65.6081
rfemur -40.2267 -6.88959 15.4392
rtibia 57.2069
rfoot -8.33019 15.9189
rtoes -39.4343
lfemur -16.8726 3.03504 -19.3218
ltibia 31.6866
lfoot -15.1099 5.07662
ltoes -17.2283
1143
root 3.0661 16.1091 2.44585 -207.279 75.3118 498.925
lowerback 0.38987 1.80682 -13.2219
upperback -9.31944 1.97087 -2.20529
thorax -10.7662 2.1907 4.71759
lowerneck 0.950972 8.40078 -0.857733
upperneck 27.4758 9.4623 21.2953
head 6.99309 7.12719 7.85398
rclavicle 5.18145e-014 2.73826e-014
rhumerus 60.3648 -42.6384 -36.3687
rradius 111.984
rwrist -36.2785
rhand -14.9998 41.4442
rfingers 7.12502
rthumb 11.1649 11.7612
lclavicle 5.18145e-014 2.73826e-014
lhumerus -54.7079 -22.907 103.705
lradius 114.552
lwrist -6.09534
lhand -28.8656 35.6259
lfingers 7.12502
lthumb -2.22186 65.5941
rfemur -42.0563 -10.8779 15.9252
rtibia 58.4466
rfoot -10.1568 14.8664
rtoes -40.0774
lfemur -15.3907 5.17939 -21.1029
ltibia 30.7189
lfoot -15.9648 6.24184
ltoes -16.3045
1144
root 3.02945 16.0816 2.38793 -224.194 77.5635 481.976
lowerback 0.746932 1.62665 -13.4949
upperback -9.5345 1.59513 -2.73724
thorax -11.1622 2.03429 4.30002
lowerneck 0.891856 8.66184 -1.11784
upperneck 27.2661 9.72403 21.1381
head 6.89146 7.1478 7.81684
rclavicle -7.0553e-015 7.34261e-015
rhumerus 60.8301 -44.6611 -38.9217
rradius 113.569
rwrist -37.422
rhand -15.967 42.6271
rfingers 7.12502
rthumb 10.232 12.896
lclavicle -7.0553e-015 7.34261e-015
lhumerus -54.5895 -22.6383 104.064
lradius 114.498
lwrist -6.73895
lhand -28.2733 35.0187
lfingers 7.12502
lthumb -1.64988 64.9921
rfemur -43.7641 -14.8166 16.4186
rtibia 59.408
rfoot -11.1002 10.4788
rtoes -37.1668
lfemur -13.8977 7.24584 -23.0173
ltibia 29.6458
lfoot -16.8107 7.27715
ltoes -15.7776
1145
root 3.01254 16.0645 2.34927 -245.098 78.0543 461.068
lowerback 1.01695 1.34201 -14.2192
upperback -9.77144 1.06227 -3.2783
thorax -11.5415 1.84684 4.13608
lowerneck 0.727291 8.61902 -1.01931
upperneck 27.2992 9.63299 20.3022
head 7.01046 6.99229 7.52883
rclavicle -1.2921e-015 -7.65321e-015
rhumerus 60.8967 -46.8022 -41.0651
rradius 114.746
rwrist -38.6677
rhand -16.8226 43.3792
rfingers 7.12502
rthumb 9.40655 13.6092
lclavicle -1.2921e-015 -7.65321e-015
lhumerus -54.6009 -23.0369 104.752
lradius 114.426
lwrist -6.26591
lhand -28.9609 35.0635
lfingers 7.12502
lthumb -2.31397 65.0307
rfemur -45.4195 -18.2301 16.7005
rtibia 60.1
rfoot -12.5381 2.29501
rtoes -34.7004
lfemur -12.4976 9.54043 -25.0966
ltibia 28.5346
lfoot -17.2796 7.85316
ltoes -15.555
1146
root 3.01476 16.0544 2.33136 -263.998 77.3259 442.262
lowerback 1.21559 0.968276 -14.6694
upperback -9.99464 0.438027 -3.68205
thorax -11.8312 1.59244 3.98988
lowerneck 1.02226 8.79167 -0.499405
upperneck 27.0165 9.98185 18.8291
head 6.96982 6.99269 6.90519
rclavicle 1.77167e-014 -1.22253e-014
rhumerus 60.3593 -49.0396 -42.628
rradius 115.527
rwrist -40.1394
rhand -17.8212 44.052
rfingers 7.12502
rthumb 8.44287 14.2407
lclavicle 1.77167e-014 -1.22253e-014
lhumerus -54.3615 -22.9903 105.281
lradius 114.089
lwrist -6.46636
lhand -28.4739 35.3838
lfingers 7.12502
lthumb -1.84362 65.3556
rfemur -46.8413 -20.882 17.3304
rtibia 60.48
rfoot -14.9339 -7.88189
rtoes -30.9059
lfemur -11.1809 12.0392 -26.6513
ltibia 27.5025
lfoot -17.2328 8.03183
ltoes -15.6122
1147
root 3.03267 16.0439 2.32705 -279.814 76.017 426.639
lowerback 1.41739 0.555021 -14.5388
upperback -10.2826 -0.203897 -3.89232
thorax -12.1709 1.28914 3.74649
lowerneck 0.512662 8.7605 -1.619
upperneck 27.0318 9.75088 19.436
head 6.96029 6.81005 7.31053
rclavicle -2.14439e-014 4.73108e-014
rhumerus 58.7307 -51.0396 -43.3141
rradius 116.15
rwrist -41.6886
rhand -18.7357 45.249
rfingers 7.12502
rthumb 7.56028 15.4041
lclavicle -2.14439e-014 4.73108e-014
lhumerus -54.443 -22.3248 105.968
lradius 113.802
lwrist -7.12537
lhand -27.9003 35.3109
lfingers 7.12502
lthumb -1.28962 65.2867
rfemur -47.932 -23.0634 18.5072
rtibia 60.5373
rfoot -18.4477 -18.5617
rtoes -16.8549
lfemur -9.91027 14.6094 -27.4581
ltibia 26.6468
lfoot -16.8152 8.13494
ltoes -15.8696
1148
root 3.06984 16.0295 2.33494 -292.757 74.0678 413.914
lowerback 1.41048 0.124335 -14.2058
upperback -10.5801 -0.810733 -3.99321
thorax -12.3994 0.981192 3.51634
lowerneck 0.285492 8.72599 -2.2695
upperneck 26.9231 9.64071 19.3129
head 6.93633 6.6452 7.37157
rclavicle -1.49089e-015 -1.19271e-015
rhumerus 56.1874 -52.7782 -43.2975
rradius 116.873
rwrist -43.5175
rhand -18.9584 46.4795
rfingers 7.12502
rthumb 7.34531 16.627
lclavicle -1.49089e-015 -1.19271e-015
lhumerus -54.5235 -21.9053 106.75
lradius 113.475
lwrist -7.43047
lhand -27.8112 35.162
lfingers 7.12502
lthumb -1.20359 65.1383
rfemur -48.725 -25.0748 19.8757
rtibia 60.3337
rfoot -18.4758 -25.6824
rtoes -22.0577
lfemur -8.56386 15.52 -28.0305
ltibia 25.9464
lfoot -16.8029 9.67891
ltoes -16.6771
1149
root 3.13125 16.0143 2.36599 -303.104 71.5741 403.797
lowerback 1.07682 -0.305406 -13.8129
upperback -10.7647 -1.34071 -4.05001
thorax -12.3088 0.680118 3.30042
lowerneck 0.014372 8.68097 -2.42801
upperneck 26.6229 9.57755 18.7199
head 6.92284 6.4951 7.18503
rclavicle -4.97459e-014 3.598e-014
rhumerus 52.8831 -54.3347 -42.5462
rradius 117.634
rwrist -45.288
rhand -19.0473 47.5769
rfingers 7.12502
rthumb 7.25949 17.7214
lclavicle -4.97459e-014 3.598e-014
lhumerus -54.4742 -21.5414 107.547
lradius 113.107
lwrist -7.56618
lhand -27.6649 34.9939
lfingers 7.12502
lthumb -1.0623 64.971
rfemur -49.0875 -26.7315 21.3422
rtibia 59.8759
rfoot -19.0667 -29.8927
rtoes -27.2285
lfemur -7.14239 15.8811 -28.433
ltibia 25.3485
lfoot -16.996 11.7133
ltoes -18.0268
1150
root 3.21482 16.0028 2.42742 -311.091 68.4396 395.968
lowerback 0.366616 -0.756651 -13.623
upperback -10.9142 -1.83825 -4.08771
thorax -11.9606 0.399394 3.20502
lowerneck -0.0612033 8.65097 -2.23331
upperneck 26.0626 9.59046 17.8354
head 6.82599 6.37185 6.81386
rclavicle 3.58309e-014 5.68524e-014
rhumerus 48.9742 -55.512 -41.1747
rradius 118.303
rwrist -46.8324
rhand -19.5674 48.8774
rfingers 7.12502
rthumb 6.75743 19.0052
lclavicle 3.58309e-014 5.68524e-014
lhumerus -54.5365 -20.5789 108.331
lradius 112.784
lwrist -8.12059
lhand -27.254 34.5814
lfingers 7.12502
lthumb -0.665428 64.5601
rfemur -48.9802 -27.5991 22.5026
rtibia 59.1675
rfoot -19.0779 -28.4092
rtoes -24.282
lfemur -5.84424 15.4641 -29.0264
ltibia 24.9243
lfoot -17.4076 14.7353
ltoes -17.6409
